# Blender 3.6.1
# www.blender.org
mtllib Tracer.mtl
o Tracer
v -0.000000 0.010000 0.050000
v 0.000000 -0.010000 0.050000
v -0.000000 0.010000 -0.050000
v 0.000000 -0.010000 -0.050000
v 0.000000 0.000000 -0.050000
v 0.000000 0.000000 0.050000
vn 1.0000 -0.0000 -0.0000
vt 0.000000 0.500000
vt 1.000000 1.158361
vt 0.000000 0.919028
vt 1.000000 -0.158361
vt 1.000000 0.500000
vt 0.000000 0.080972
s 0
usemtl Tracer
f 6/1/1 3/2/1 1/3/1
f 6/1/1 4/4/1 5/5/1
f 6/1/1 5/5/1 3/2/1
f 6/1/1 2/6/1 4/4/1
o Tracer.001
v 0.010000 -0.000000 0.050000
v -0.010000 -0.000000 0.050000
v 0.010000 0.000000 -0.050000
v -0.010000 0.000000 -0.050000
v -0.000000 0.000000 -0.050000
v 0.000000 -0.000000 0.050000
vn -0.0000 -1.0000 -0.0000
vt 0.000000 0.500000
vt 1.000000 1.158361
vt 0.000000 0.919028
vt 1.000000 -0.158361
vt 1.000000 0.500000
vt 0.000000 0.080972
s 0
usemtl Tracer
f 12/7/2 9/8/2 7/9/2
f 12/7/2 10/10/2 11/11/2
f 12/7/2 11/11/2 9/8/2
f 12/7/2 8/12/2 10/10/2
o Tracer.002
v 0.007071 -0.007071 0.050000
v -0.007071 0.007071 0.050000
v 0.007071 -0.007071 -0.050000
v -0.007071 0.007071 -0.050000
v 0.000000 0.000000 -0.050000
v -0.000000 -0.000000 0.050000
vn -0.7071 -0.7071 -0.0000
vt 0.000000 0.500000
vt 1.000000 1.158361
vt 0.000000 0.919028
vt 1.000000 -0.158361
vt 1.000000 0.500000
vt 0.000000 0.080972
s 0
usemtl Tracer
f 18/13/3 15/14/3 13/15/3
f 18/13/3 16/16/3 17/17/3
f 18/13/3 17/17/3 15/14/3
f 18/13/3 14/18/3 16/16/3
o Tracer.003
v -0.007071 -0.007071 0.050000
v 0.007071 0.007071 0.050000
v -0.007071 -0.007071 -0.050000
v 0.007071 0.007071 -0.050000
v 0.000000 -0.000000 -0.050000
v -0.000000 0.000000 0.050000
vn -0.7071 0.7071 -0.0000
vt 0.000000 0.500000
vt 1.000000 1.158361
vt 0.000000 0.919028
vt 1.000000 -0.158361
vt 1.000000 0.500000
vt 0.000000 0.080972
s 0
usemtl Tracer
f 24/19/4 21/20/4 19/21/4
f 24/19/4 22/22/4 23/23/4
f 24/19/4 23/23/4 21/20/4
f 24/19/4 20/24/4 22/22/4
